<svg xmlns="http://www.w3.org/2000/svg" viewBox="0 0 512 512">
  <defs>
    <linearGradient id="cupGradient" x1="0%" y1="0%" x2="100%" y2="100%">
      <stop offset="0%" style="stop-color:#a06b35"/>
      <stop offset="100%" style="stop-color:#6f4726"/>
    </linearGradient>
    <linearGradient id="steamGradient" x1="0%" y1="100%" x2="0%" y2="0%">
      <stop offset="0%" style="stop-color:#8b5a2b;stop-opacity:0.8"/>
      <stop offset="100%" style="stop-color:#c9a05e;stop-opacity:0.3"/>
    </linearGradient>
  </defs>

  <!-- Background circle -->
  <circle cx="256" cy="256" r="240" fill="#ffffff"/>

  <!-- Steam lines -->
  <path d="M180 140 Q190 100 180 70" stroke="url(#steamGradient)" stroke-width="12" fill="none" stroke-linecap="round"/>
  <path d="M256 120 Q266 80 256 50" stroke="url(#steamGradient)" stroke-width="12" fill="none" stroke-linecap="round"/>
  <path d="M332 140 Q322 100 332 70" stroke="url(#steamGradient)" stroke-width="12" fill="none" stroke-linecap="round"/>

  <!-- Cup body -->
  <path d="M100 180 L100 340 Q100 420 180 420 L332 420 Q412 420 412 340 L412 180 Z" fill="url(#cupGradient)"/>

  <!-- Cup handle -->
  <path d="M412 200 Q480 200 480 280 Q480 360 412 360" stroke="url(#cupGradient)" stroke-width="32" fill="none" stroke-linecap="round"/>

  <!-- Coffee surface -->
  <ellipse cx="256" cy="200" rx="140" ry="30" fill="#5c3c24"/>

  <!-- Coffee highlight (crema) -->
  <ellipse cx="230" cy="195" rx="60" ry="12" fill="#c9a05e" opacity="0.6"/>

  <!-- Cup rim highlight -->
  <path d="M110 180 L402 180" stroke="#e0ccb0" stroke-width="6" stroke-linecap="round" opacity="0.4"/>
</svg>
